<svg width="48" height="48" viewBox="0 0 48 48" fill="none" xmlns="http://www.w3.org/2000/svg">
<circle cx="24" cy="24" r="23.5" stroke="white"/>
<g clip-path="url(#clip0_12_452)">
<path d="M39.0001 27.06V28.14C38.9298 28.464 38.8682 28.788 38.7803 29.094C38.1211 31.371 36.0642 32.982 33.7437 32.991C27.2479 33 20.761 33 14.2652 32.991C11.5491 32.982 9.29893 30.831 9.02644 28.041C8.77153 25.431 10.6174 22.902 13.2104 22.335C13.4214 22.281 13.4653 22.2 13.4653 22.002C13.5532 17.961 17.0077 14.721 20.9368 15.027C23.2661 15.207 25.0856 16.314 26.3777 18.303C26.4129 18.357 26.4569 18.42 26.4744 18.447C26.993 18.249 27.4941 18.006 28.0127 17.871C30.887 17.115 33.8316 19.014 34.4205 21.993C34.4733 22.2 34.5524 22.281 34.7545 22.326C36.9256 22.776 38.6309 24.621 38.9473 26.862C38.9561 26.925 38.9825 26.988 39.0001 27.06Z" fill="white"/>
</g>
<defs>
<clipPath id="clip0_12_452">
<rect width="30" height="18" fill="white" transform="translate(9 15)"/>
</clipPath>
</defs>
</svg>
