<svg width="48" height="48" viewBox="0 0 48 48" fill="none" xmlns="http://www.w3.org/2000/svg">
<circle cx="24" cy="24" r="23.5" stroke="white"/>
<g clip-path="url(#clip0_12_457)">
<path d="M36 19.0533C35.9763 18.06 35.787 17.0777 35.44 16.1467C35.1554 15.3473 34.7005 14.6194 34.1067 14.0133C33.5034 13.4225 32.7805 12.9678 31.9867 12.68C31.016 12.3027 29.9877 12.0953 28.9467 12.0667C27.6133 12.0667 27.2533 12.0667 24 12.0667C20.7467 12.0667 20.3333 12 19.0533 12.0667C18.06 12.0904 17.0777 12.2797 16.1467 12.6267C15.3473 12.9112 14.6194 13.3662 14.0133 13.96C13.4195 14.5661 12.9646 15.294 12.68 16.0933C12.3089 17.038 12.1015 18.039 12.0667 19.0533C12 20.3333 12 20.7467 12 24C12 27.2533 12 27.6667 12.0667 28.9467C12.0916 29.9442 12.2808 30.9307 12.6267 31.8667C12.9145 32.6605 13.3691 33.3834 13.96 33.9867C14.5661 34.5805 15.294 35.0354 16.0933 35.32C17.034 35.7139 18.0351 35.9439 19.0533 36C20.3867 36 20.7467 36.0667 24 36.0667C27.2533 36.0667 27.6667 36.0667 28.9467 36C29.9442 35.975 30.9307 35.7858 31.8667 35.44C32.6606 35.1276 33.3817 34.655 33.985 34.0517C34.5883 33.4484 35.0609 32.7273 35.3733 31.9333C35.7492 30.9803 35.9611 29.9704 36 28.9467C36 27.6133 36.0667 27.2533 36.0667 24C36.0667 20.7467 36 20.3333 36 19.0533ZM33.84 28.8533C33.7929 29.6181 33.6218 30.3701 33.3333 31.08C33.1281 31.5876 32.8229 32.0486 32.4358 32.4358C32.0486 32.8229 31.5876 33.1281 31.08 33.3333C30.3648 33.5899 29.613 33.7295 28.8533 33.7467C27.52 33.7467 27.2 33.8133 24 33.8133C20.8 33.8133 20.4133 33.8133 19.1467 33.7467C18.3871 33.7295 17.6352 33.5899 16.92 33.3333C16.4158 33.13 15.9611 32.8208 15.5867 32.4267C15.1925 32.0522 14.8834 31.5975 14.68 31.0933C14.4234 30.3782 14.2838 29.6263 14.2667 28.8667C14.2667 27.5333 14.2667 27.2133 14.2667 24.0133C14.2667 20.8133 14.2667 20.4267 14.2667 19.16C14.2781 18.3966 14.4132 17.6402 14.6667 16.92C14.87 16.4158 15.1792 15.9611 15.5733 15.5867C15.9478 15.1925 16.4025 14.8834 16.9067 14.68C17.6218 14.4234 18.3737 14.2838 19.1333 14.2667C20.4 14.2667 20.7867 14.2667 23.9867 14.2667C27.1867 14.2667 27.5733 14.2667 28.84 14.2667C29.6034 14.2781 30.3598 14.4132 31.08 14.6667C31.5842 14.87 32.0389 15.1792 32.4133 15.5733C32.8075 15.9478 33.1166 16.4025 33.32 16.9067C33.5766 17.6218 33.7162 18.3737 33.7333 19.1333C33.7333 20.4 33.8 20.7867 33.8 23.9867C33.8 27.1867 33.8267 27.5867 33.7733 28.8533H33.84ZM24 17.84C22.7817 17.84 21.5907 18.2013 20.5777 18.8781C19.5647 19.555 18.7751 20.5171 18.3089 21.6427C17.8427 22.7683 17.7207 24.0068 17.9584 25.2018C18.196 26.3967 18.7827 27.4943 19.6442 28.3558C20.5057 29.2173 21.6033 29.8039 22.7982 30.0416C23.9932 30.2793 25.2317 30.1573 26.3573 29.6911C27.4829 29.2249 28.445 28.4353 29.1219 27.4223C29.7987 26.4093 30.16 25.2183 30.16 24C30.16 22.3663 29.511 20.7994 28.3558 19.6442C27.2006 18.489 25.6337 17.84 24 17.84ZM24 28C23.2089 28 22.4355 27.7654 21.7777 27.3259C21.1199 26.8863 20.6072 26.2616 20.3045 25.5307C20.0017 24.7998 19.9225 23.9956 20.0769 23.2196C20.2312 22.4437 20.6122 21.731 21.1716 21.1716C21.731 20.6122 22.4437 20.2312 23.2196 20.0769C23.9956 19.9225 24.7998 20.0017 25.5307 20.3045C26.2616 20.6072 26.8864 21.1199 27.3259 21.7777C27.7654 22.4355 28 23.2089 28 24C28 25.0609 27.5786 26.0783 26.8284 26.8284C26.0783 27.5786 25.0609 28 24 28ZM31.84 17.6C31.84 17.8848 31.7555 18.1632 31.5973 18.4C31.4391 18.6368 31.2142 18.8214 30.9511 18.9304C30.6879 19.0394 30.3984 19.0679 30.1191 19.0123C29.8397 18.9568 29.5832 18.8196 29.3818 18.6182C29.1804 18.4168 29.0432 18.1603 28.9877 17.8809C28.9321 17.6016 28.9606 17.3121 29.0696 17.0489C29.1786 16.7858 29.3632 16.5609 29.6 16.4027C29.8368 16.2445 30.1152 16.16 30.4 16.16C30.7819 16.16 31.1482 16.3117 31.4182 16.5818C31.6883 16.8518 31.84 17.2181 31.84 17.6Z" fill="white"/>
</g>
<defs>
<clipPath id="clip0_12_457">
<rect width="24" height="24" fill="white" transform="translate(12 12)"/>
</clipPath>
</defs>
</svg>
