<svg width="48" height="48" viewBox="0 0 48 48" fill="none" xmlns="http://www.w3.org/2000/svg">
<circle cx="24" cy="24" r="23.5" stroke="white"/>
<g clip-path="url(#clip0_12_467)">
<path d="M37 16.3918C36.5557 17.0751 36.0687 17.6334 35.5133 18.1334C35.2399 18.3834 34.9494 18.6334 34.6504 18.8501C34.4795 18.9751 34.4282 19.1001 34.4368 19.3001C34.6162 24.8501 31.2925 30.3251 26.1917 32.5918C21.4412 34.7001 16.742 34.4418 12.2051 31.8834C12.1282 31.8418 12.0684 31.7918 12 31.7501C14.7427 31.9251 17.229 31.2918 19.4846 29.6251C17.1179 29.4168 15.5543 28.2501 14.6828 26.1084H16.8958C16.9043 26.0751 16.9129 26.0334 16.9214 26.0001C15.7594 25.7084 14.7939 25.1251 14.0506 24.2084C13.3072 23.2918 12.9313 22.2501 12.9142 21.0334C13.6405 21.3668 14.3496 21.6168 15.1613 21.6251C12.974 19.7501 12.299 17.5834 13.649 14.9084C16.4515 18.1001 19.9289 19.8918 24.1668 20.1584C24.1668 19.6084 24.1326 19.0918 24.1753 18.5834C24.3889 15.9584 26.6873 13.9501 29.3872 14.0001C30.7457 14.0251 31.9163 14.5084 32.8988 15.4168C33.0355 15.5418 33.1381 15.5751 33.326 15.5334C34.283 15.3001 35.2057 14.9751 36.0687 14.5168C36.1285 14.4834 36.1969 14.4584 36.3336 14.4001C35.932 15.5751 35.2228 16.4418 34.2403 17.1418C34.5393 17.0834 34.8383 17.0334 35.1374 16.9668C35.445 16.8918 35.7526 16.8084 36.0516 16.7168C36.3421 16.6251 36.6326 16.5168 37 16.3918Z" fill="white"/>
</g>
<defs>
<clipPath id="clip0_12_467">
<rect width="25" height="20" fill="white" transform="translate(12 14)"/>
</clipPath>
</defs>
</svg>
