<svg width="48" height="48" viewBox="0 0 48 48" fill="none" xmlns="http://www.w3.org/2000/svg">
<rect width="48" height="48" rx="24" fill="#EA384E"/>
<path d="M34.9611 19.7499C34.7964 18.2099 34.2249 16.8599 33.1689 15.7399C31.5415 14.0299 29.0906 13.5399 26.9884 14.4999C25.8647 15.0099 25.0413 15.8799 24.3825 16.9299C24.2469 17.1399 24.1306 17.3499 23.995 17.5899C23.9466 17.5099 23.9175 17.4599 23.8885 17.4099C23.5978 16.9799 23.346 16.5199 23.0166 16.1199C21.1857 13.8199 18.1051 13.3099 15.7317 14.9899C13.5327 16.5499 12.7771 18.8199 13.0483 21.4899C13.1839 22.8199 13.7555 23.9899 14.5014 25.0699C15.3345 26.2799 16.3226 27.3399 17.3979 28.3099C19.4323 30.1599 21.4957 31.9899 23.5494 33.8199C23.8497 34.0899 24.1597 34.0699 24.4794 33.7799C26.0875 32.3499 27.7053 30.9299 29.3037 29.4999C30.563 28.3699 31.803 27.2099 32.8686 25.8799C33.7502 24.7799 34.4864 23.5799 34.8061 22.1699C34.8836 21.8099 34.932 21.4499 34.9999 21.0799V19.9699C34.9902 19.8999 34.9708 19.8299 34.9611 19.7499ZM33.6921 20.9599C33.5952 22.3899 32.9558 23.5799 32.1324 24.6899C31.2024 25.9399 30.0884 27.0099 28.9453 28.0399C27.3275 29.4999 25.6903 30.9399 24.0628 32.3799C24.0435 32.3899 24.0241 32.3999 23.995 32.4299C22.9488 31.4999 21.9025 30.5899 20.866 29.6699C19.4904 28.4599 18.1148 27.2499 16.8748 25.8999C16.0029 24.9499 15.1892 23.9499 14.7242 22.7199C13.9492 20.6699 14.1333 18.7199 15.4798 16.9799C16.9814 15.0299 20.2557 14.5099 22.2029 17.1799C22.7066 17.8699 23.0844 18.6299 23.3557 19.4499C23.4816 19.8299 23.6947 20.0199 24.0047 20.0199C24.3147 20.0199 24.5278 19.8299 24.6538 19.4499C25.0606 18.2199 25.6612 17.1099 26.659 16.2799C28.2671 14.9499 30.6405 15.0699 32.1615 16.5799C33.3627 17.7699 33.7986 19.2699 33.6921 20.9599Z" fill="white" stroke="white"/>
</svg>
