<svg width="48" height="48" viewBox="0 0 48 48" fill="none" xmlns="http://www.w3.org/2000/svg">
<circle cx="24" cy="24" r="23.5" stroke="white"/>
<g clip-path="url(#clip0_12_461)">
<path d="M36.2375 18.375C35.9525 16.8075 35 15.8025 33.515 15.5325C32.9 15.42 32.2775 15.3375 31.6625 15.315C29.03 15.195 26.3975 15.105 23.765 15C23.765 15.03 23.765 15.0525 23.765 15.0825C23.165 15.0825 22.5725 15.075 21.9725 15.0825C19.4525 15.1275 16.9325 15.15 14.42 15.465C12.9725 15.6525 11.87 16.5525 11.525 17.895C11.4125 18.3375 11.3375 18.7875 11.2775 19.2375C11.0225 21.24 10.9625 23.25 11.015 25.26C11.06 26.79 11.1275 28.32 11.435 29.8275C11.735 31.335 12.74 32.34 14.2025 32.5575C15.0575 32.685 15.92 32.79 16.775 32.82C19.4525 32.91 22.13 32.985 24.815 33C27.4775 33.015 30.14 32.9475 32.795 32.67C33.4775 32.595 34.1525 32.4825 34.745 32.1C35.72 31.47 36.17 30.525 36.2825 29.415C36.4325 27.9 36.575 26.385 36.6275 24.8625C36.7025 22.695 36.62 20.5275 36.2375 18.375ZM21.2825 27.8775V20.205C23.51 21.4875 25.7075 22.755 27.9425 24.0375C25.7075 25.3275 23.51 26.595 21.2825 27.8775Z" fill="white"/>
<path d="M21.2825 20.205C23.51 21.4875 25.7075 22.755 27.9425 24.0375C25.7075 25.3275 23.51 26.5875 21.2825 27.87C21.2825 25.305 21.2825 22.7775 21.2825 20.205Z" fill="black"/>
</g>
<defs>
<clipPath id="clip0_12_461">
<rect width="25.65" height="18" fill="white" transform="translate(11 15)"/>
</clipPath>
</defs>
</svg>
